# xmcd
#
# Track frame offsets:
#	150
#	16290
#	31995
#	44620
#	55957
#	70607
#	82317
#	95387
#	111547
#	126780
#	139820
#	154175
#	169315
#	184827
#	197237
#	210845
#	227910
#	240797
#	257132
#	273610
#
# Disc length: 3834 seconds
#
# Revision: 0
# Processed by: cddbd v1.4PL0 Copyright (c) Steve Scherf et al.
# Submitted via: audiograbber 1.81.03
#
DISCID=220ef814
DTITLE=Acker Bilk - As Time Goes By
DYEAR=1900
DGENRE=Blues
TTITLE0=Aria
TTITLE1=The Windmills Of Your Mind
TTITLE2=Cavatina
TTITLE3=Magnificent Mog
TTITLE4=If
TTITLE5=Bilits
TTITLE6=Amazing Grace
TTITLE7=For The Good Times
TTITLE8=Lazy Serenade
TTITLE9=The Shepherd's Song
TTITLE10=When I Need You
TTITLE11=Strange  On The Shore
TTITLE12=As Time Goes By
TTITLE13=Love Letters
TTITLE14=Pachebel Canon (In D)
TTITLE15=Skylark
TTITLE16=Champagne
TTITLE17=With A Little Luck
TTITLE18=The First Of Spring
TTITLE19=She's Leaving Home
EXTD=
EXTT0=
EXTT1=
EXTT2=
EXTT3=
EXTT4=
EXTT5=
EXTT6=
EXTT7=
EXTT8=
EXTT9=
EXTT10=
EXTT11=
EXTT12=
EXTT13=
EXTT14=
EXTT15=
EXTT16=
EXTT17=
EXTT18=
EXTT19=
PLAYORDER=
